<?xml version="1.0" encoding="UTF-8"?><svg id="Layer_2" xmlns="http://www.w3.org/2000/svg" viewBox="0 0 456 129.14"><defs><style>.cls-1{fill:#fff;}</style></defs><g id="Layer_1-2"><g><g><path class="cls-1" d="m160.94,90.85V20.49h25.12c5.45,0,9.96,1,13.55,3,3.59,2,6.28,4.72,8.07,8.17,1.79,3.45,2.69,7.33,2.69,11.64s-.9,8.19-2.69,11.64c-1.79,3.45-4.49,6.17-8.1,8.17-3.6,2-8.14,3-13.62,3h-17.19v-8.97h16.2c3.49,0,6.32-.6,8.48-1.79,2.16-1.2,3.73-2.84,4.72-4.93.99-2.09,1.49-4.46,1.49-7.11s-.5-5.04-1.49-7.11c-.99-2.06-2.57-3.67-4.75-4.84-2.17-1.16-5.01-1.75-8.5-1.75h-13.36v61.24h-10.62Z"/><path class="cls-1" d="m239.98,91.93c-5.16,0-9.63-1.12-13.41-3.35-3.78-2.23-6.68-5.39-8.71-9.47-2.03-4.08-3.04-8.84-3.04-14.28s1-10.18,3-14.31c2-4.12,4.82-7.34,8.45-9.66,3.64-2.31,7.91-3.47,12.82-3.47,2.99,0,5.89.49,8.69,1.46,2.8.98,5.32,2.52,7.55,4.63,2.23,2.11,4,4.85,5.31,8.22,1.31,3.37,1.96,7.43,1.96,12.18v3.68h-41.98v-7.7h36.69l-4.77,2.55c0-3.24-.5-6.11-1.51-8.59-1.01-2.49-2.51-4.43-4.51-5.83-2-1.4-4.48-2.1-7.44-2.1s-5.48.71-7.58,2.12c-2.09,1.42-3.69,3.29-4.79,5.62-1.1,2.33-1.65,4.88-1.65,7.65v5.24c0,3.62.63,6.69,1.89,9.21,1.26,2.52,3.01,4.44,5.26,5.76,2.25,1.32,4.87,1.98,7.86,1.98,1.95,0,3.72-.28,5.31-.85,1.59-.57,2.97-1.42,4.13-2.55,1.16-1.13,2.05-2.53,2.64-4.2l10.67-.04c-1.17,3.7-3.11,7.2-5.1,9.34-1.98,2.14-4.48,3.8-7.48,4.98-3.01,1.18-6.43,1.77-10.27,1.77Z"/><path class="cls-1" d="m279.97,20.49v70.35h-10.2V20.49h10.2Z"/><path class="cls-1" d="m294.94,29.94c-1.79,0-3.32-.6-4.58-1.79-1.26-1.2-1.89-2.63-1.89-4.3s.63-3.15,1.89-4.34c1.26-1.2,2.79-1.79,4.58-1.79s3.28.6,4.56,1.79c1.28,1.2,1.91,2.64,1.91,4.34s-.64,3.1-1.91,4.3c-1.27,1.2-2.79,1.79-4.56,1.79Zm-5.15,60.91v-52.79h10.2v52.79h-10.2Z"/><path class="cls-1" d="m331.96,91.93c-5.07,0-9.44-1.16-13.13-3.49-3.68-2.33-6.52-5.54-8.5-9.63-1.98-4.09-2.97-8.78-2.97-14.07s1.02-10.13,3.04-14.24c2.03-4.11,4.88-7.32,8.55-9.63,3.67-2.31,7.97-3.47,12.91-3.47,4.03,0,7.61.73,10.74,2.2,3.13,1.46,5.67,3.53,7.6,6.21,1.94,2.68,3.08,5.79,3.42,9.35h-10.01c-.35-1.67-1.02-3.19-2.01-4.58-.99-1.38-2.29-2.49-3.9-3.3-1.61-.82-3.51-1.23-5.71-1.23-2.86,0-5.36.75-7.48,2.24-2.12,1.5-3.79,3.63-4.98,6.4-1.2,2.77-1.79,6.04-1.79,9.82s.58,7.13,1.75,9.96c1.16,2.83,2.82,5.01,4.98,6.54,2.16,1.53,4.67,2.29,7.53,2.29s5.48-.82,7.58-2.46c2.09-1.64,3.44-3.87,4.04-6.71h10.01c-.35,3.43-1.45,6.49-3.31,9.16-1.86,2.68-4.34,4.79-7.46,6.33-3.12,1.54-6.75,2.31-10.91,2.31Z"/><path class="cls-1" d="m376.15,91.98c-3.34,0-6.36-.62-9.07-1.87-2.71-1.24-4.85-3.06-6.42-5.45-1.57-2.39-2.36-5.3-2.36-8.74,0-2.99.57-5.44,1.72-7.34,1.15-1.9,2.7-3.42,4.65-4.56,1.95-1.13,4.12-1.98,6.52-2.55,2.39-.57,4.85-1.01,7.37-1.32,3.18-.35,5.74-.64,7.7-.9,1.95-.25,3.38-.65,4.27-1.2.9-.55,1.35-1.44,1.35-2.67v-.24c0-2.99-.84-5.3-2.53-6.94-1.68-1.64-4.18-2.46-7.48-2.46s-6.14.76-8.14,2.24c-3.85,2.85-4.19,7.22-4.19,7.22h-10.98c.71-5.3,4.22-10.16,6.44-12.13s4.77-3.41,7.65-4.32c2.88-.91,5.89-1.37,9.04-1.37,2.11,0,4.34.24,6.71.73,2.36.49,4.59,1.39,6.68,2.69,2.09,1.31,3.8,3.17,5.12,5.59,1.32,2.42,1.98,5.56,1.98,9.4v35.04h-10.06v-7.22h-.38c-.63,1.29-1.61,2.58-2.95,3.87-1.34,1.29-3.05,2.36-5.12,3.21-2.08.85-4.58,1.28-7.51,1.28Zm2.22-8.22c2.86,0,5.3-.56,7.32-1.68,2.01-1.12,3.56-2.59,4.63-4.41,1.07-1.83,1.61-3.76,1.61-5.81v-6.85c-.38.35-1.09.68-2.12.99-1.04.31-2.22.58-3.54.8-1.32.22-2.61.42-3.87.59-1.26.17-2.31.31-3.16.4-1.98.28-3.79.72-5.43,1.3-1.64.58-2.95,1.43-3.94,2.55-.99,1.12-1.49,2.59-1.49,4.42,0,2.55.95,4.47,2.83,5.76,1.89,1.29,4.28,1.94,7.18,1.94Z"/><path class="cls-1" d="m422.19,59.54v31.31h-10.2v-52.79h9.92v8.69h.71c1.2-2.86,3.07-5.14,5.62-6.82,2.55-1.68,5.82-2.53,9.82-2.53,3.59,0,6.73.75,9.42,2.24,2.69,1.5,4.78,3.72,6.28,6.68,1.49,2.96,2.24,6.63,2.24,11v33.52h-10.2v-32.3c0-3.81-1.01-6.81-3.02-8.99-2.01-2.19-4.75-3.28-8.22-3.28-2.36,0-4.48.53-6.35,1.58-1.87,1.05-3.35,2.56-4.42,4.51-1.07,1.95-1.61,4.34-1.61,7.18Z"/></g><g><path class="cls-1" d="m174.09,112.92c-.61,0-1.17-.11-1.7-.32s-.98-.51-1.37-.9c-.39-.39-.7-.83-.91-1.34-.22-.51-.32-1.06-.32-1.65s.11-1.14.32-1.65c.21-.51.52-.96.92-1.34.4-.39.86-.69,1.38-.9.52-.21,1.08-.32,1.68-.32.44,0,.86.06,1.27.18.41.12.79.28,1.15.5.35.21.66.47.92.78l-.9.91c-.31-.37-.68-.64-1.1-.84s-.87-.29-1.33-.29c-.42,0-.81.08-1.16.23-.35.15-.66.36-.93.63-.26.27-.47.58-.62.94-.15.36-.22.75-.22,1.18s.07.81.22,1.17c.15.36.36.68.63.95s.58.48.95.63c.36.15.75.22,1.18.22.47,0,.91-.09,1.32-.28s.76-.45,1.06-.79l.89.89c-.27.3-.57.55-.92.77-.35.21-.73.38-1.13.5-.4.12-.82.18-1.24.18Z"/><path class="cls-1" d="m182.31,112.92c-.6,0-1.16-.11-1.68-.32s-.97-.51-1.37-.9c-.39-.39-.7-.83-.91-1.34-.22-.51-.32-1.06-.32-1.65s.11-1.14.32-1.65c.21-.51.52-.96.91-1.34.39-.39.85-.69,1.37-.9.52-.21,1.08-.32,1.68-.32s1.15.11,1.67.32c.52.21.97.51,1.37.9.39.39.7.83.91,1.34.21.51.32,1.06.32,1.65s-.11,1.14-.32,1.65c-.21.51-.52.96-.91,1.34-.39.39-.85.69-1.37.9-.52.21-1.07.32-1.67.32Zm0-1.24c.41,0,.79-.08,1.15-.23.35-.15.66-.36.92-.63s.47-.58.61-.95c.15-.36.22-.75.22-1.17s-.07-.82-.22-1.18c-.15-.36-.35-.67-.61-.94-.26-.27-.57-.48-.92-.63-.35-.15-.73-.23-1.15-.23s-.8.08-1.15.23c-.35.15-.66.36-.92.63-.26.27-.47.58-.61.94-.15.36-.22.75-.22,1.18s.07.81.22,1.17c.15.36.35.68.61.95.26.27.57.48.92.63.35.15.74.23,1.15.23Z"/><path class="cls-1" d="m187.85,112.79v-8.18h1.78l2.49,5.03,2.48-5.03h1.77v8.18h-1.26v-6.52l-3,5.94-2.99-5.94v6.52h-1.25Z"/><path class="cls-1" d="m197.99,112.79v-8.18h1.78l2.49,5.03,2.48-5.03h1.77v8.18h-1.26v-6.52l-3,5.94-2.99-5.94v6.52h-1.25Z"/><path class="cls-1" d="m211.5,112.92c-.73,0-1.35-.15-1.88-.44-.53-.3-.93-.72-1.22-1.26s-.43-1.19-.43-1.93v-4.68h1.34v4.68c0,.48.09.9.27,1.26.18.36.43.64.76.83.33.19.71.29,1.15.29s.83-.1,1.15-.29c.32-.19.57-.47.75-.83.18-.36.27-.78.27-1.26v-4.68h1.34v4.68c0,.74-.15,1.38-.44,1.92-.29.54-.7.96-1.22,1.26-.52.3-1.14.45-1.86.45Z"/><path class="cls-1" d="m216.5,112.79v-8.18h1.3l4.44,5.88v-5.88h1.27v8.18h-1.19l-4.55-6.07v6.07h-1.27Z"/><path class="cls-1" d="m225.12,112.79v-8.18h1.34v8.18h-1.34Z"/><path class="cls-1" d="m230.34,112.79v-6.99h-2.85v-1.19h7.04v1.19h-2.84v6.99h-1.34Z"/><path class="cls-1" d="m238.14,112.79v-3.22l-3.31-4.97h1.56l2.47,3.78,2.45-3.78h1.49l-3.31,4.98v3.2h-1.34Z"/><path class="cls-1" d="m245.98,112.79v-8.18h1.34v8.18h-1.34Z"/><path class="cls-1" d="m248.95,112.79v-8.18h1.3l4.44,5.88v-5.88h1.27v8.18h-1.19l-4.55-6.07v6.07h-1.27Z"/><path class="cls-1" d="m260.1,112.79l-3.33-8.18h1.45l2.7,6.84,2.76-6.84h1.38l-3.38,8.18h-1.58Z"/><path class="cls-1" d="m265.87,112.79v-8.18h6.1v1.17h-4.76v2.31h3.12v1.15h-3.12v2.39h4.81v1.17h-6.15Z"/><path class="cls-1" d="m276.06,112.91c-.65,0-1.29-.13-1.9-.38-.62-.25-1.16-.61-1.63-1.08l.81-.96c.45.44.91.76,1.36.96.46.21.94.31,1.44.31.38,0,.71-.05,1-.16.28-.11.51-.26.67-.46.16-.19.24-.42.24-.67,0-.34-.12-.61-.37-.79-.25-.19-.65-.33-1.21-.42l-1.44-.23c-.73-.12-1.28-.37-1.65-.73-.37-.36-.56-.83-.56-1.41,0-.48.13-.9.38-1.26.25-.36.61-.63,1.07-.83.46-.19,1-.29,1.62-.29.58,0,1.17.1,1.75.29.58.19,1.1.47,1.56.82l-.74,1.02c-.87-.66-1.76-.99-2.65-.99-.34,0-.64.05-.9.14s-.46.23-.6.4-.21.37-.21.61c0,.31.11.55.32.71.21.16.57.29,1.07.37l1.38.22c.85.14,1.48.4,1.88.77.41.37.61.88.61,1.51,0,.51-.14.95-.41,1.33-.27.38-.66.68-1.16.89-.5.21-1.08.32-1.74.32Z"/><path class="cls-1" d="m282.55,112.79v-6.99h-2.85v-1.19h7.04v1.19h-2.84v6.99h-1.34Z"/><path class="cls-1" d="m287.75,112.79v-8.18h6.1v1.17h-4.76v2.31h3.12v1.15h-3.12v2.39h4.81v1.17h-6.15Z"/><path class="cls-1" d="m295.14,112.79v-8.18h2.96c.62,0,1.18.1,1.71.31.52.21.98.49,1.37.87.39.37.69.8.91,1.3.21.5.32,1.04.32,1.63s-.11,1.12-.32,1.62-.52.93-.91,1.29c-.39.37-.85.65-1.37.86-.52.21-1.09.31-1.71.31h-2.96Zm1.34-1.2h1.61c.41,0,.8-.07,1.15-.22.35-.14.67-.35.94-.61.27-.26.48-.57.62-.92.14-.35.22-.73.22-1.13s-.07-.79-.22-1.15-.35-.66-.62-.92c-.27-.26-.58-.47-.94-.61-.35-.14-.74-.22-1.15-.22h-1.61v5.78Z"/><path class="cls-1" d="m306.1,112.79v-8.18h1.34v8.18h-1.34Z"/><path class="cls-1" d="m309.07,112.79v-8.18h1.3l4.44,5.88v-5.88h1.27v8.18h-1.19l-4.55-6.07v6.07h-1.27Z"/><path class="cls-1" d="m322.59,112.79v-3.22l-3.31-4.97h1.56l2.47,3.78,2.45-3.78h1.49l-3.31,4.98v3.2h-1.34Z"/><path class="cls-1" d="m331.2,112.92c-.6,0-1.16-.11-1.68-.32s-.97-.51-1.37-.9c-.39-.39-.7-.83-.91-1.34-.22-.51-.32-1.06-.32-1.65s.11-1.14.32-1.65c.21-.51.52-.96.91-1.34.39-.39.85-.69,1.37-.9.52-.21,1.08-.32,1.68-.32s1.15.11,1.67.32c.52.21.97.51,1.37.9.39.39.7.83.91,1.34.21.51.32,1.06.32,1.65s-.11,1.14-.32,1.65c-.21.51-.52.96-.91,1.34-.39.39-.85.69-1.37.9-.52.21-1.07.32-1.67.32Zm0-1.24c.41,0,.79-.08,1.15-.23.35-.15.66-.36.92-.63s.47-.58.61-.95c.15-.36.22-.75.22-1.17s-.07-.82-.22-1.18c-.15-.36-.35-.67-.61-.94-.26-.27-.57-.48-.92-.63-.35-.15-.73-.23-1.15-.23s-.8.08-1.15.23c-.35.15-.66.36-.92.63-.26.27-.47.58-.61.94-.15.36-.22.75-.22,1.18s.07.81.22,1.17c.15.36.35.68.61.95.26.27.57.48.92.63.35.15.74.23,1.15.23Z"/><path class="cls-1" d="m340.12,112.92c-.73,0-1.35-.15-1.88-.44-.53-.3-.93-.72-1.22-1.26s-.43-1.19-.43-1.93v-4.68h1.34v4.68c0,.48.09.9.27,1.26.18.36.43.64.76.83.33.19.71.29,1.15.29s.83-.1,1.15-.29c.32-.19.57-.47.75-.83.18-.36.27-.78.27-1.26v-4.68h1.34v4.68c0,.74-.15,1.38-.44,1.92-.29.54-.7.96-1.22,1.26-.52.3-1.14.45-1.86.45Z"/><path class="cls-1" d="m345.11,112.79v-8.18h3.79c.55,0,1.02.1,1.44.31.41.21.73.49.96.86s.35.79.35,1.29c0,.53-.15.99-.45,1.39-.3.39-.7.68-1.21.85l1.82,3.5h-1.5l-1.67-3.31h-2.19v3.31h-1.34Zm1.34-4.42h2.33c.46,0,.83-.12,1.1-.35.27-.23.41-.55.41-.95s-.14-.7-.41-.94c-.27-.24-.64-.36-1.1-.36h-2.33v2.6Z"/><path class="cls-1" d="m359.26,112.92c-.61,0-1.17-.11-1.7-.32s-.98-.51-1.37-.9c-.39-.39-.7-.83-.91-1.34-.22-.51-.32-1.06-.32-1.65s.11-1.14.32-1.65c.21-.51.52-.96.92-1.34.4-.39.86-.69,1.38-.9.52-.21,1.08-.32,1.68-.32.44,0,.86.06,1.27.18.41.12.79.28,1.15.5.35.21.66.47.92.78l-.9.91c-.31-.37-.68-.64-1.1-.84s-.87-.29-1.33-.29c-.42,0-.81.08-1.16.23-.35.15-.66.36-.93.63-.26.27-.47.58-.62.94-.15.36-.22.75-.22,1.18s.07.81.22,1.17c.15.36.36.68.63.95s.58.48.95.63c.36.15.75.22,1.18.22.47,0,.91-.09,1.32-.28s.76-.45,1.06-.79l.89.89c-.27.3-.57.55-.92.77-.35.21-.73.38-1.13.5-.4.12-.82.18-1.24.18Z"/><path class="cls-1" d="m363.71,112.79v-8.18h1.34v3.45h4.21v-3.45h1.34v8.18h-1.34v-3.51h-4.21v3.51h-1.34Z"/><path class="cls-1" d="m372.22,112.79v-8.18h1.34v8.18h-1.34Z"/><path class="cls-1" d="m375.19,112.79v-8.18h1.34v6.99h4.65v1.19h-6Z"/><path class="cls-1" d="m382.4,112.79v-8.18h2.96c.62,0,1.18.1,1.71.31.52.21.98.49,1.37.87.39.37.69.8.91,1.3.21.5.32,1.04.32,1.63s-.11,1.12-.32,1.62-.52.93-.91,1.29c-.39.37-.85.65-1.37.86-.52.21-1.09.31-1.71.31h-2.96Zm1.34-1.2h1.61c.41,0,.8-.07,1.15-.22.35-.14.67-.35.94-.61.27-.26.48-.57.62-.92.14-.35.22-.73.22-1.13s-.07-.79-.22-1.15-.35-.66-.62-.92c-.27-.26-.58-.47-.94-.61-.35-.14-.74-.22-1.15-.22h-1.61v5.78Z"/><path class="cls-1" d="m390.6,107.05l.75-2.81h1.34l-1.12,2.81h-.97Z"/><path class="cls-1" d="m396.69,112.91c-.65,0-1.29-.13-1.9-.38-.62-.25-1.16-.61-1.63-1.08l.81-.96c.45.44.91.76,1.36.96.46.21.94.31,1.44.31.38,0,.71-.05,1-.16.28-.11.51-.26.67-.46.16-.19.24-.42.24-.67,0-.34-.12-.61-.37-.79-.25-.19-.65-.33-1.21-.42l-1.44-.23c-.73-.12-1.28-.37-1.65-.73-.37-.36-.56-.83-.56-1.41,0-.48.13-.9.38-1.26.25-.36.61-.63,1.07-.83.46-.19,1-.29,1.62-.29.58,0,1.17.1,1.75.29.58.19,1.1.47,1.56.82l-.74,1.02c-.87-.66-1.76-.99-2.65-.99-.34,0-.64.05-.9.14s-.46.23-.6.4-.21.37-.21.61c0,.31.11.55.32.71.21.16.57.29,1.07.37l1.38.22c.85.14,1.48.4,1.88.77.41.37.61.88.61,1.51,0,.51-.14.95-.41,1.33-.27.38-.66.68-1.16.89-.5.21-1.08.32-1.74.32Z"/><path class="cls-1" d="m403.53,112.79v-8.18h6.11v1.17h-4.77v2.37h3.16v1.15h-3.16v3.5h-1.34Z"/><path class="cls-1" d="m414.22,112.92c-.73,0-1.35-.15-1.88-.44-.53-.3-.93-.72-1.22-1.26s-.43-1.19-.43-1.93v-4.68h1.34v4.68c0,.48.09.9.27,1.26.18.36.43.64.76.83.33.19.71.29,1.15.29s.83-.1,1.15-.29c.32-.19.57-.47.75-.83.18-.36.27-.78.27-1.26v-4.68h1.34v4.68c0,.74-.15,1.38-.44,1.92-.29.54-.7.96-1.22,1.26-.52.3-1.14.45-1.86.45Z"/><path class="cls-1" d="m421.45,112.79v-6.99h-2.85v-1.19h7.04v1.19h-2.84v6.99h-1.34Z"/><path class="cls-1" d="m430.03,112.92c-.73,0-1.35-.15-1.88-.44-.53-.3-.93-.72-1.22-1.26s-.43-1.19-.43-1.93v-4.68h1.34v4.68c0,.48.09.9.27,1.26.18.36.43.64.76.83.33.19.71.29,1.15.29s.83-.1,1.15-.29c.32-.19.57-.47.75-.83.18-.36.27-.78.27-1.26v-4.68h1.34v4.68c0,.74-.15,1.38-.44,1.92-.29.54-.7.96-1.22,1.26-.52.3-1.14.45-1.86.45Z"/><path class="cls-1" d="m435.03,112.79v-8.18h3.79c.55,0,1.02.1,1.44.31.41.21.73.49.96.86s.35.79.35,1.29c0,.53-.15.99-.45,1.39-.3.39-.7.68-1.21.85l1.82,3.5h-1.5l-1.67-3.31h-2.19v3.31h-1.34Zm1.34-4.42h2.33c.46,0,.83-.12,1.1-.35.27-.23.41-.55.41-.95s-.14-.7-.41-.94c-.27-.24-.64-.36-1.1-.36h-2.33v2.6Z"/><path class="cls-1" d="m442.79,112.79v-8.18h6.1v1.17h-4.76v2.31h3.12v1.15h-3.12v2.39h4.81v1.17h-6.15Z"/></g><g><circle class="cls-1" cx="47.33" cy="14.88" r="3.05"/><path class="cls-1" d="m73.88,128.97h-6.3v-15.28c0-2.91,1.27-5.66,3.48-7.54,1.72-1.46,2.83-3.47,3.12-5.64.22-1.65-.13-3.28-.98-4.66l-3.08-5.01L34.38,28.05c-3.93-5.97-4.08-13.47-.37-19.59C37.56,2.58,43.94-.62,50.69.1c3.99.43,7.7,2.15,10.71,4.99l65.76,61.9-1.27,5.31c-7.96,2.34-15.25,3.35-21.8,3.35-16.5,0-28.38-6.37-34.83-13.87-1.6-1.86-3.1-3.86-4.45-5.94-6.02-9.25-9.12-20.28-8.97-31.89l.2-15.16c-1.79-1.36-3.84-2.19-6.02-2.43-4.34-.46-8.32,1.54-10.63,5.36-1.92,3.17-2.85,8.23.29,12.93l.12.19,35.78,62.85,2.99,4.87c1.6,2.61,2.26,5.71,1.86,8.74-.51,3.78-2.38,7.19-5.29,9.66-.8.68-1.26,1.68-1.26,2.74v15.28ZM62.26,14.54l-.13,9.49c-.14,10.36,2.61,20.17,7.95,28.37,1.2,1.85,2.53,3.62,3.95,5.27,7.17,8.33,22.49,14.93,44.67,9.99L62.26,14.54Z"/><path class="cls-1" d="m61.43,129.14h-6.3v-16.45c0-.99-.53-1.93-1.38-2.44L0,77.79l1.62-5.84,38.57-.03c5.09-.19,10.15,1.79,13.85,5.44.76.75,1.48,1.63,2.27,2.77l6.38,9.23c2.52,4.2,4.51,4.95,6.96,4.81.21-.01.42-.03.63-.06,3.56-.45,6.59-3.08,7.53-6.54.65-2.4.28-4.86-1.1-7.33-4.12-7.37-14.8-29.41-15.26-30.35l5.67-2.74c.11.23,11.05,22.81,15.08,30.02,2.18,3.9,2.76,8.07,1.68,12.05-1.6,5.88-6.75,10.36-12.81,11.13-.35.04-.7.08-1.04.1-6.9.43-10.53-4.2-12.68-7.76l-6.21-8.97c-.56-.81-1.05-1.41-1.52-1.88-2.47-2.44-5.8-3.76-9.18-3.63h-.22s-27.3.03-27.3.03l44.09,26.62c2.73,1.65,4.42,4.65,4.42,7.83v16.45Z"/></g></g></g></svg>