<?xml version="1.0" encoding="UTF-8"?>
<svg width="595.64px" height="106.144631px" viewBox="0 0 595.64 106.144631" version="1.1" xmlns="http://www.w3.org/2000/svg" xmlns:xlink="http://www.w3.org/1999/xlink">
    <title>Group 25</title>
    <g id="Automalog" stroke="none" stroke-width="1" fill="none" fill-rule="evenodd">
        <g id="Group-25" transform="translate(0, 0.0006)" fill-rule="nonzero">
            <g id="Group-19" transform="translate(131.52, 15.24)" fill="#151722">
                <path d="M35.552,19.36 L35.552,24.816 C32.472,20.856 27.896,18.216 21.736,18.216 C9.68,18.216 0,28.512 0,43.56 C0,58.52 9.504,68.904 21.824,68.904 C27.984,68.904 32.384,66.352 35.464,62.568 L35.464,67.76 L50.424,67.76 L50.512,19.36 L35.552,19.36 Z M25.344,54.648 C19.624,54.648 15.136,50.336 15.136,43.56 C15.136,36.872 19.536,32.472 25.344,32.472 C31.152,32.472 35.552,36.872 35.552,43.56 C35.552,50.336 31.152,54.648 25.344,54.648 Z" id="Shape"></path>
                <path d="M86.824,19.36 L86.824,45.056 C86.824,51.744 83.832,54.648 78.112,54.648 C72.216,54.648 70.632,51.568 70.632,46.288 L70.632,19.36 L55.672,19.36 L55.672,49.632 C55.672,61.424 62.272,68.904 72.92,68.904 C78.816,68.904 83.304,66.616 86.824,62.216 L86.824,67.76 L101.784,67.76 L101.784,19.36 L86.824,19.36 Z" id="Path"></path>
                <path d="M144.08,52.624 C139.944,53.944 136.776,55 134.136,55 C130.352,55 127.976,52.8 127.976,48.136 L127.976,33.44 L144.256,33.44 L144.256,19.36 L127.976,19.36 L127.976,6.16 L113.016,9.416 L113.016,19.36 L104.744,19.36 L104.744,33.44 L113.016,33.44 L113.016,49.016 C113.016,63.448 122.168,68.904 131.496,68.904 C137.568,68.904 143.904,66.616 146.632,64.68 L144.08,52.624 Z" id="Path"></path>
                <path d="M172.736,18.216 C158.744,18.216 147.392,28.952 147.392,43.56 C147.392,58.08 158.568,68.904 172.736,68.904 C186.904,68.904 198.08,58.168 198.08,43.56 C198.08,28.952 186.728,18.216 172.736,18.216 Z M172.736,32.472 C178.544,32.472 182.944,36.872 182.944,43.56 C182.944,50.336 178.544,54.648 172.736,54.648 C167.016,54.648 162.528,50.336 162.528,43.56 C162.528,36.872 166.928,32.472 172.736,32.472 Z" id="Shape"></path>
                <path d="M262.024,18.216 C255.336,18.216 249.704,21.296 246.008,26.664 C243.192,21.296 238.088,18.216 231.488,18.216 C225.768,18.216 221.28,20.504 217.76,24.816 L217.76,19.36 L202.8,19.36 L202.8,67.76 L217.76,67.76 L217.76,42.064 C217.76,35.376 220.752,32.472 226.208,32.472 C231.84,32.472 233.424,35.552 233.424,40.832 L233.424,67.76 L248.384,67.76 L248.384,42.064 C248.384,35.376 251.376,32.472 256.832,32.472 C262.464,32.472 264.048,35.552 264.048,40.832 L264.048,67.76 L279.008,67.76 L279.008,37.488 C279.008,25.696 272.408,18.216 262.024,18.216 Z" id="Path"></path>
                <path d="M318.84,19.36 L318.84,24.816 C315.76,20.856 311.184,18.216 305.024,18.216 C292.968,18.216 283.288,28.512 283.288,43.56 C283.288,58.52 292.792,68.904 305.112,68.904 C311.272,68.904 315.672,66.352 318.752,62.568 L318.752,67.76 L333.712,67.76 L333.8,19.36 L318.84,19.36 Z M308.632,54.648 C302.912,54.648 298.424,50.336 298.424,43.56 C298.424,36.872 302.824,32.472 308.632,32.472 C314.44,32.472 318.84,36.872 318.84,43.56 C318.84,50.336 314.44,54.648 308.632,54.648 Z" id="Shape"></path>
                <polygon id="Path" points="339.4 67.76 354.36 67.76 354.36 -4.54747351e-13 339.4 -4.54747351e-13"></polygon>
                <path d="M384.424,18.216 C370.432,18.216 359.08,28.952 359.08,43.56 C359.08,58.08 370.256,68.904 384.424,68.904 C398.592,68.904 409.768,58.168 409.768,43.56 C409.768,28.952 398.416,18.216 384.424,18.216 Z M384.424,32.472 C390.232,32.472 394.632,36.872 394.632,43.56 C394.632,50.336 390.232,54.648 384.424,54.648 C378.704,54.648 374.216,50.336 374.216,43.56 C374.216,36.872 378.616,32.472 384.424,32.472 Z" id="Shape"></path>
                <path d="M449.16,19.36 L449.16,24.728 C446.08,20.856 441.504,18.216 435.432,18.216 C423.288,18.216 413.608,28.512 413.608,43.12 C413.608,57.64 423.112,68.024 435.432,68.024 C441.592,68.024 445.992,65.472 449.16,61.688 L449.16,67.584 C449.16,74.536 445.816,77.616 439.304,77.616 C435.256,77.616 431.384,76.56 430.24,71.72 L414.84,71.72 C416.424,85.096 427.952,90.904 439.744,90.904 C454.528,90.904 464.12,81.4 464.12,67.056 L464.12,19.36 L449.16,19.36 Z M438.952,53.768 C433.232,53.768 428.744,49.456 428.744,43.12 C428.744,36.872 433.144,32.472 438.952,32.472 C444.76,32.472 449.16,36.872 449.16,43.12 C449.16,49.456 444.76,53.768 438.952,53.768 Z" id="Shape"></path>
            </g>
            <path d="M84.2327231,103.994811 C84.194536,103.994811 84.1846483,103.978168 84.2030599,103.94488 C87.5785216,97.9195268 88.0336975,90.8629443 86.4738251,84.2058102 C84.017921,73.7233461 76.9969606,64.4687783 67.0956062,59.9260714 L65.6196088,59.2902148 C65.5841494,59.2745901 65.5759665,59.2504737 65.59506,59.2178657 L70.8843062,49.7380986 L72.6242033,46.6179173 C72.6319951,46.6041499 72.6310955,46.5871362 72.621895,46.5742605 C72.6126945,46.5613849 72.5968517,46.5549685 72.5812429,46.5577962 L54.673907,49.5964574 L35.3918376,52.8674509 C35.3710669,52.8711029 35.3530815,52.8839469 35.3429399,52.9023705 C35.3327982,52.9207941 35.3315961,52.942807 35.3396714,52.962218 L37.638054,58.579971 L39.0669994,62.0700497 L42.4475755,70.3209015 L46.2966247,79.7191485 L49.5810513,87.719326 C49.5898253,87.7401236 49.6097187,87.7541312 49.6323265,87.7554306 C49.6549344,87.7567299 49.6763128,87.7450944 49.6874295,87.72544 L57.2423265,74.1829156 C57.262102,74.1469109 57.2886965,74.1414762 57.3221102,74.1666116 C60.8975083,76.8610089 63.2376781,80.3587456 64.3426194,84.6598216 L64.4525174,85.1076262 C65.6758665,90.9240844 63.8459571,96.6162244 58.9893837,100.174576 C55.1147628,103.014532 50.0392958,103.988697 45.3310381,103.994811 L39.1465274,103.998887 L32.9615052,103.994811 C26.7738406,103.998451 20.585835,104 14.3974885,103.997868 C13.5164589,103.997868 12.8352294,103.970016 12.3537999,103.91431 C9.5511438,103.588909 7.05773455,102.497219 4.87357214,100.639241 C1.95294536,98.0373913 0.334428508,94.7759085 0.0180215904,90.8547923 C-0.0931299775,88.5273938 0.309879695,86.3613372 1.22705061,84.3566224 C1.51890871,83.7180484 2.20593451,82.3118269 3.288128,80.1379579 L6.66256686,73.2749856 L13.0943557,60.2052777 L17.4425642,51.3664623 L23.0110532,40.0535123 L28.0159423,29.8818435 L32.6382791,20.4937865 C34.0539273,17.5801227 35.4852595,14.6749507 36.9322756,11.7782702 C40.5736828,4.48731749 47.6570381,0.0607767843 55.85225,0 C60.5683497,-0.0339903164 64.832342,1.30429777 68.6442271,4.01551999 C70.2521743,5.19552324 71.6681635,6.57830771 72.8921945,8.1638734 C74.3610318,10.0795954 75.2724065,11.9820705 76.3842631,14.2992789 L79.7658621,21.1979163 L81.8586483,25.4532648 L85.8764706,33.6338055 L89.5107178,41.0368483 L93.9704187,50.118186 L98.8904099,60.1482137 L104.123398,70.803908 C106.306879,75.2535461 108.490018,79.7031841 110.672817,84.1528222 C111.398371,85.6310531 111.827634,87.2533028 111.960607,89.0195714 C112.523184,96.5020963 106.994587,103.082805 99.5736852,103.918386 C99.0792994,103.974092 98.3984108,104.001265 97.5310194,104 C95.96726,103.998295 94.3827569,103.997265 92.7775101,103.996852 L89.5393581,103.996849 L84.2327231,103.994811 Z" id="Combined-Shape" fill="#604CFF" transform="translate(56, 52) scale(-1, 1) translate(-56, -52)"></path>
        </g>
    </g>
</svg>