<?xml version="1.0" encoding="UTF-8"?>
<svg width="399px" height="88px" viewBox="0 0 399 88" version="1.1" xmlns="http://www.w3.org/2000/svg" xmlns:xlink="http://www.w3.org/1999/xlink">
    <title>logo</title>
    <g id="Baselair" stroke="none" stroke-width="1" fill="none" fill-rule="evenodd">
        <g id="logo" fill-rule="nonzero">
            <path d="M10.4733471,8.58525373 C10.4733471,3.84376119 14.2922199,0 19.0024693,0 L72.87168,0 L72.87168,88 L19.0024693,88 C14.2922199,88 10.4733471,84.1562388 10.4733471,79.4147463 L10.4733471,8.58525373 Z" id="Path" fill="#0D131D"></path>
            <path d="M72.87168,0 C87.0017718,0 98.4577343,11.5319403 98.4577343,25.7564179 C98.4577343,30.6226866 97.0878492,35.389791 94.5062702,39.5041194 C93.9745949,40.3512836 93.0654958,41.5806567 91.7789728,43.1896119 C91.3993954,43.6670543 91.3985795,44.3431944 91.7770037,44.8215522 C93.1376986,46.538209 94.0467978,47.7636418 94.5062702,48.4958806 C97.089242,52.6155566 98.4587999,57.3804427 98.4577343,62.2435821 C98.4577343,76.4680597 87.0024281,88 72.87168,88 L57.6073476,88 L57.6073476,87.8837612 C57.1833201,87.9599403 56.7461649,88 56.3004766,88 L41.108347,88 C40.8438221,88 40.5825792,87.986209 40.3252746,87.9586269 C44.0049928,87.5678806 46.8721012,84.4517612 46.8721012,80.6664478 C46.8721012,76.8811343 44.0049928,73.7656716 40.3252746,73.3749254 C40.5825792,73.3473433 40.8438221,73.3335522 41.108347,73.3335522 L31.9438401,73.3335522 C27.8952311,73.3335522 24.6139411,70.0499701 24.6139411,66 L24.6165667,65.8075821 C24.718307,61.8462687 27.9595572,58.6664478 31.9438401,58.6664478 L57.6086604,58.6664478 C61.5358374,58.5252537 64.6779728,55.2961791 64.6779728,51.3335522 C64.6779728,47.3702687 61.5358374,44.141194 57.6086604,44 L38.7512531,44 C34.7033005,44 31.4213542,40.7164179 31.4213542,36.6664478 C31.4213542,32.6164776 34.7033005,29.3335522 38.7512531,29.3335522 L50.5347533,29.3335522 C50.4481099,29.3335522 50.3614665,29.3315821 50.2754795,29.3289552 C54.2033129,29.1917015 57.3454483,25.9632836 57.3454483,22 C57.3454483,18.0367164 54.2033129,14.8082985 50.2761359,14.6710448 C50.3614665,14.6684179 50.4481099,14.6664478 50.5347533,14.6664478 L46.084434,14.6664478 C42.0364814,14.6664478 38.7551915,11.3828657 38.7551915,7.33355224 C38.7545351,3.28292537 42.035825,0 46.0837776,0 L72.8710236,0 L72.87168,0 Z M57.6066912,73.3328955 L56.3004766,73.3328955 C56.7468213,73.3328955 57.1833201,73.3729552 57.6073476,73.449791 L57.6073476,73.3328955 L57.6066912,73.3328955 Z M11.0004277,58.6664478 C15.0483803,58.6664478 18.3303267,61.9500299 18.3303267,66 C18.3303267,70.0499701 15.0483803,73.3335522 11.0004277,73.3335522 L7.32989894,73.3335522 C3.28128994,73.3335522 0,70.0499701 0,66 C0,61.9500299 3.28194633,58.6664478 7.32989894,58.6664478 L11.0004277,58.6664478 Z M17.806528,29.3335522 C21.8557934,29.3335522 25.1383961,32.6171343 25.1383961,36.6664478 C25.1383961,40.7170746 21.8557934,44 17.806528,44 C13.7566063,44 10.4746599,40.7164179 10.4746599,36.6664478 C10.4746599,32.6164776 13.7566063,29.3335522 17.806528,29.3335522 Z" id="Shape" fill="#00F4D7"></path>
            <path d="M133.535176,70.9253731 L133.535176,61.952 L145.738765,61.952 C147.993462,61.952 149.757837,61.2900299 151.031888,59.9660896 C152.30594,58.6421493 152.943294,57.024 152.943294,55.1116418 C152.943294,53.7877015 152.649231,52.6108657 152.061107,51.5811343 C151.472982,50.551403 150.651839,49.7423284 149.598334,49.1539104 C148.544829,48.5654925 147.258306,48.2712836 145.738765,48.2712836 L133.535176,48.2712836 L133.535176,39.5185672 L144.783063,39.5185672 C146.694468,39.5185672 148.238296,39.0404776 149.414545,38.0842985 C150.590795,37.1281194 151.17892,35.6695522 151.17892,33.7079403 C151.17892,31.7955821 150.590795,30.3613134 149.414545,29.4051343 C148.238296,28.4489552 146.694468,27.9708657 144.783063,27.9708657 L133.535176,27.9708657 L133.535176,18.9974925 L146.98853,18.9974925 C150.321019,18.9974925 153.152026,19.610209 155.479582,20.8362985 C157.807795,22.0623881 159.583984,23.7048358 160.809463,25.7642985 C162.034942,27.8237612 162.647353,30.1038806 162.647353,32.6046567 C162.647353,35.7917015 161.618134,38.4888358 159.559698,40.695403 C157.501261,42.9019701 154.462835,44.4222687 150.443764,45.2556418 L150.737826,41.3573731 C155.099533,42.191403 158.469435,43.8824478 160.846221,46.4324776 C163.223006,48.9825075 164.411727,52.1202985 164.411727,55.8471642 C164.411727,58.6907463 163.713329,61.2532537 162.316533,63.5333731 C160.919736,65.8134925 158.909872,67.6155224 156.288254,68.9394627 C153.665978,70.263403 150.517279,70.9253731 146.841499,70.9253731 L133.535176,70.9253731 Z M124.713304,70.9253731 L124.713304,18.9974925 L136.108222,18.9974925 L136.108222,70.9253731 L124.713304,70.9253731 Z M185.731251,71.6608955 C182.447335,71.6608955 179.519183,70.8518209 176.946137,69.2336716 C174.373091,67.6155224 172.33894,65.4089552 170.844342,62.6139701 C169.349744,59.8189851 168.602116,56.6312836 168.602116,53.0521791 C168.602116,49.4730746 169.349744,46.2853731 170.844342,43.4903881 C172.33894,40.695403 174.373091,38.4888358 176.946137,36.8706866 C179.519183,35.2525373 182.447335,34.4434627 185.731251,34.4434627 C188.132979,34.4434627 190.301689,34.9097313 192.237381,35.8409552 C194.173729,36.7728358 195.753658,38.06 196.979137,39.7024478 C198.204616,41.3448955 198.890543,43.2204776 199.037574,45.329194 L199.037574,60.7751642 C198.890543,62.8832239 198.217087,64.7594627 197.015895,66.4019104 C195.814702,68.0443582 194.234773,69.3315224 192.274139,70.263403 C190.313504,71.1952836 188.132322,71.6608955 185.731251,71.6608955 Z M188.010234,61.5106866 C190.411962,61.5106866 192.347654,60.7140896 193.817966,59.1202388 C195.288278,57.5263881 196.023434,55.5037015 196.023434,53.0521791 C196.023434,51.3847761 195.692614,49.9137313 195.030974,48.6390448 C194.369333,47.3643582 193.437917,46.371403 192.237381,45.6601791 C191.036189,44.9489552 189.651864,44.5936716 188.08375,44.5936716 C186.514979,44.5936716 185.130654,44.9489552 183.930118,45.6601791 C182.728926,46.371403 181.77388,47.3643582 181.06301,48.6390448 C180.352141,49.9137313 179.997034,51.3847761 179.997034,53.0521791 C179.997034,54.6703284 180.340325,56.1170746 181.026252,57.3917612 C181.712179,58.6664478 182.667882,59.6718806 183.893361,60.407403 C185.118839,61.1429254 186.490693,61.5106866 188.010234,61.5106866 L188.010234,61.5106866 Z M195.582341,70.9253731 L195.582341,61.2900299 L197.273199,52.6108657 L195.582341,43.9317015 L195.582341,35.1789851 L206.60968,35.1789851 L206.60968,70.9253731 L195.582341,70.9253731 Z M227.561626,71.808 C225.454616,71.808 223.383708,71.5387463 221.349558,70.9989254 C219.315407,70.4597612 217.428945,69.6874627 215.688857,68.6820299 C213.949425,67.6772537 212.465985,66.5122388 211.241163,65.1882985 L217.63702,58.7157015 C218.811562,59.9894085 220.238756,61.0039733 221.827409,61.6945672 C223.444752,62.405791 225.209127,62.7610746 227.120532,62.7610746 C228.443813,62.7610746 229.46056,62.5647164 230.171429,62.1726567 C230.882299,61.780597 231.237406,61.2407761 231.237406,60.5545075 C231.237406,59.6718806 230.808783,58.9980896 229.950883,58.5318209 C229.092982,58.0655522 228.002719,57.649194 226.679439,57.2814328 C225.278542,56.8912046 223.881672,56.4866461 222.489049,56.0678209 C221.022524,55.6281672 219.615272,55.010644 218.29866,54.2290149 C216.97538,53.4442388 215.896932,52.3534328 215.063974,50.9559403 C214.23036,49.5584478 213.814209,47.7807164 213.814209,45.623403 C213.814209,43.3183284 214.402334,41.320597 215.578583,39.6288955 C216.754833,37.937194 218.420749,36.6014328 220.577644,35.6202985 C222.733883,34.6398209 225.257699,34.1492537 228.149751,34.1492537 C231.188833,34.1492537 233.994241,34.676597 236.567286,35.7306269 C239.140332,36.7846567 241.235527,38.3417313 242.85287,40.401194 L236.457013,46.873791 C235.329993,45.5498507 234.067756,44.6179701 232.67096,44.078806 C231.274163,43.5396418 229.914125,43.2697313 228.590844,43.2697313 C227.316793,43.2697313 226.36109,43.4536119 225.723736,43.8213731 C225.087038,44.1891343 224.768033,44.7164776 224.768033,45.4027463 C224.768033,46.1382687 225.18484,46.7266866 226.017798,47.168 C226.851413,47.6093134 227.929204,48.0020299 229.252484,48.3448358 C230.663022,48.7140657 232.060623,49.1311019 233.442874,49.5952239 C234.914422,50.0861581 236.321386,50.7529473 237.633263,51.5811343 C238.956543,52.4151642 240.034991,53.5302687 240.867949,54.9277612 C241.701563,56.3252537 242.117714,58.1522388 242.117714,60.407403 C242.117714,63.8886567 240.806905,66.6593433 238.18463,68.718806 C235.562355,70.7782687 232.021134,71.808 227.561626,71.808 L227.561626,71.808 Z M265.863252,71.7344478 C261.991212,71.7344478 258.54845,70.9378507 255.534311,69.344 C252.520171,67.7501493 250.155201,65.5317612 248.440056,62.6875224 C246.72491,59.8439403 245.86701,56.6319403 245.86701,53.0521791 C245.86701,49.4730746 246.712439,46.2728955 248.403298,43.4536119 C250.094156,40.6343284 252.385611,38.4152836 255.277006,36.7971343 C258.168401,35.1789851 261.427374,34.3699104 265.054581,34.3699104 C268.583329,34.3699104 271.695271,35.1297313 274.391062,36.6500299 C277.086852,38.1703284 279.206333,40.2783881 280.750161,42.9755224 C282.293988,45.6726567 283.065902,48.761194 283.065902,52.2431045 C283.065902,52.8801194 283.029144,53.5545672 282.955629,54.265791 C282.882113,54.9770149 282.747553,55.7979104 282.551293,56.729791 L251.748257,56.8033433 L251.748257,49.0803582 L277.772779,49.006806 L272.92075,52.2431045 C272.87152,50.1836418 272.553172,48.4801194 271.965047,47.1312239 C271.376922,45.7829851 270.507206,44.7532537 269.355243,44.0420299 C268.20328,43.330806 266.794669,42.9755224 265.128096,42.9755224 C263.363722,42.9755224 261.832366,43.3800597 260.533371,44.1891343 C259.234377,44.998209 258.229445,46.1382687 257.519232,47.6093134 C256.808362,49.0803582 256.453256,50.8699104 256.453256,52.9786269 C256.453256,55.0866866 256.833305,56.8893731 257.592747,58.3847164 C258.35219,59.8800597 259.430637,61.032597 260.827434,61.8416716 C262.22423,62.6507463 263.878331,63.0552836 265.789737,63.0552836 C267.554111,63.0552836 269.147168,62.748597 270.568251,62.1358806 C271.989333,61.5231642 273.239755,60.6037612 274.317546,59.3776716 L280.492856,65.5560597 C278.762568,67.5908199 276.569089,69.179993 274.096999,70.1898507 C271.597469,71.2195821 268.852449,71.7344478 265.863252,71.7344478 L265.863252,71.7344478 Z M288.506056,70.9253731 L288.506056,17.5264478 L299.753943,17.5264478 L299.753943,70.9253731 L288.506056,70.9253731 Z M322.617294,71.6608955 C319.333378,71.6608955 316.405226,70.8518209 313.83218,69.2336716 C311.259134,67.6155224 309.224984,65.4089552 307.730385,62.6139701 C306.235787,59.8189851 305.488159,56.6312836 305.488159,53.0521791 C305.488159,49.4730746 306.235787,46.2853731 307.730385,43.4903881 C309.224984,40.695403 311.259134,38.4888358 313.83218,36.8706866 C316.405226,35.2525373 319.333378,34.4434627 322.617294,34.4434627 C325.019022,34.4434627 327.187732,34.9097313 329.123424,35.8409552 C331.059773,36.7728358 332.639702,38.06 333.86518,39.7024478 C335.090659,41.3448955 335.776586,43.2204776 335.923617,45.329194 L335.923617,60.7751642 C335.776586,62.8832239 335.10313,64.7594627 333.901938,66.4019104 C332.700746,68.0443582 331.120817,69.3315224 329.160182,70.263403 C327.199547,71.1952836 325.018366,71.6608955 322.617294,71.6608955 Z M324.896277,61.5106866 C327.298006,61.5106866 329.233698,60.7140896 330.70401,59.1202388 C332.174322,57.5263881 332.909478,55.5037015 332.909478,53.0521791 C332.909478,51.3847761 332.578657,49.9137313 331.917017,48.6390448 C331.255377,47.3643582 330.32396,46.371403 329.123424,45.6601791 C327.922232,44.9489552 326.537907,44.5936716 324.969793,44.5936716 C323.401023,44.5936716 322.016698,44.9489552 320.816162,45.6601791 C319.614969,46.371403 318.659923,47.3643582 317.949053,48.6390448 C317.238184,49.9137313 316.883077,51.3847761 316.883077,53.0521791 C316.883077,54.6703284 317.226369,56.1170746 317.912296,57.3917612 C318.598222,58.6664478 319.553925,59.6718806 320.779404,60.407403 C322.004883,61.1429254 323.376736,61.5106866 324.896277,61.5106866 L324.896277,61.5106866 Z M332.468384,70.9253731 L332.468384,61.2900299 L334.159243,52.6108657 L332.468384,43.9317015 L332.468384,35.1789851 L343.495724,35.1789851 L343.495724,70.9253731 L332.468384,70.9253731 Z M351.435408,70.9253731 L351.435408,35.1789851 L362.683295,35.1789851 L362.683295,70.9253731 L351.435408,70.9253731 Z M357.096109,30.2509851 C355.331735,30.2509851 353.873238,29.6500896 352.721931,28.4489552 C351.569968,27.2471642 350.994315,25.7892537 350.994315,24.072597 C350.994315,22.3073433 351.569968,20.8362985 352.721931,19.6594627 C353.873894,18.4826269 355.331735,17.894209 357.096109,17.894209 C358.860484,17.894209 360.305853,18.4826269 361.433529,19.6594627 C362.56055,20.8362985 363.124388,22.3073433 363.124388,24.072597 C363.124388,25.788597 362.56055,27.2478209 361.433529,28.4489552 C360.306509,29.6507463 358.860484,30.2509851 357.096109,30.2509851 Z M370.622979,70.9253731 L370.622979,35.1789851 L381.870866,35.1789851 L381.870866,70.9253731 L370.622979,70.9253731 Z M381.870866,51.2869254 L377.165867,47.6093134 C378.097284,43.4411343 379.665398,40.2048358 381.870866,37.9004179 C384.076334,35.5953433 387.139702,34.4434627 391.060315,34.4434627 C392.775461,34.4434627 394.283187,34.7008955 395.581525,35.2157612 C396.880519,35.7306269 398.020011,36.5272239 399,37.606209 L392.310081,46.0647164 C391.819758,45.5255522 391.207347,45.1085373 390.472191,44.8143284 C389.737035,44.5201194 388.90342,44.3730149 387.97266,44.3730149 C386.110484,44.3730149 384.627701,44.9489552 383.524967,46.1014925 C382.422233,47.2540299 381.870866,48.9825075 381.870866,51.2869254 L381.870866,51.2869254 Z" id="Shape" fill="#0D131D"></path>
        </g>
    </g>
</svg>