<?xml version="1.0" encoding="UTF-8"?>
<svg width="173px" height="32px" viewBox="0 0 173 32" version="1.1" xmlns="http://www.w3.org/2000/svg" xmlns:xlink="http://www.w3.org/1999/xlink">
    <title>Logo</title>
    <g id="Landing" stroke="none" stroke-width="1" fill="none" fill-rule="evenodd">
        <g transform="translate(-80, -32)" fill-rule="nonzero" id="Logo">
            <g transform="translate(80, 32)">
                <path d="M16.7923181,26.7673106 L19.4788556,26.7743343 C21.2419355,26.7785557 22.668171,27.9010845 22.6647358,29.2817943 L22.6647358,29.5065526 C22.6630734,30.1698189 22.3249853,30.8051709 21.7248578,31.2727949 C21.1247302,31.7404189 20.3117395,32.0019963 19.4647899,31.9999885 L16.7782525,31.9929415 C16.6461924,31.9929415 16.5391366,31.8860245 16.5391366,31.7541358 L16.5532022,27.0061164 C16.5532022,26.8742276 16.6602581,26.7673106 16.7923181,26.7673106 Z M33.0873634,0 C33.3452335,0 33.5327754,0.11472039 33.649989,0.344161171 L38.5659306,9.91043698 C38.6831443,10.1398778 38.7183084,10.3810247 38.6714229,10.6338778 L34.7963388,31.6487803 C34.7588304,31.8548088 34.6345839,31.957823 34.4235993,31.957823 L29.0434916,31.957823 C28.7856215,31.957823 28.6801292,31.8313964 28.7270146,31.5785433 C29.4259688,27.7438747 28.0165203,25.2356641 24.4986691,24.0539114 L24.2893049,23.9859265 C24.0572218,23.9172503 24.020153,23.8111958 24.1780984,23.6677628 L24.2260095,23.6277179 C28.7410803,20.0947982 26.7859562,12.8603899 20.7447633,12.4811102 L20.4878386,12.4675788 C19.9804765,12.4444532 19.273281,12.4305778 18.3662519,12.4259527 L17.2655419,12.4246432 C15.5475587,12.428366 13.3010697,12.4565533 10.526075,12.509205 C10.3150904,12.5138875 10.2095981,12.6215842 10.2095981,12.8322951 L10.2095981,31.5153301 C10.2095618,31.7531131 10.0154642,31.9469589 9.7735632,31.9507993 L4.37235699,31.9648467 C4.10042127,31.9648467 3.94101067,31.8313964 3.8941252,31.5644959 L0.0190410593,10.5566171 C-0.0266702194,10.3107239 0.0104719749,10.0584846 0.124533368,9.8402 L5.07563905,0.337137473 C5.19285273,0.112379158 5.37805034,0 5.63123188,0 L33.0873634,0 Z M18.4309653,17.2080373 C19.0912667,17.2061747 19.7252646,17.4537574 20.1934803,17.8963388 C20.6616959,18.3389201 20.9257736,18.9402443 20.9276365,19.5680208 L20.9276365,19.7365896 C20.9314663,21.0438149 19.8199832,22.1066872 18.445031,22.1105994 L16.757154,22.1105994 C16.6433226,22.1106625 16.5499638,22.0205327 16.5461694,21.9069121 L16.5321038,17.4257932 C16.5301972,17.3687024 16.5515813,17.3132849 16.5913571,17.2722365 C16.631133,17.2311882 16.6858917,17.2080373 16.7430884,17.2080373 L18.4309653,17.2080373 Z M31.4838803,2.98507138 L7.22064933,2.98507138 C7.12982796,2.98242309 7.04535087,3.03141068 7.00263189,3.11149793 L4.98421238,7.02369736 C4.94468649,7.09771228 4.94694301,7.18701147 4.99015681,7.25894104 C5.03337061,7.33087062 5.11120447,7.37488223 5.195197,7.37488223 L33.5163655,7.37488223 C33.600358,7.37488223 33.6781918,7.33087062 33.7214056,7.25894104 C33.7646194,7.18701147 33.766876,7.09771228 33.7273501,7.02369736 L31.7018977,3.11149793 C31.6591788,3.03141068 31.5747017,2.98242309 31.4838803,2.98507138 Z" id="Shape" fill="#BB62F4"></path>
                <path d="M75.1389152,7.13235643 C75.3647607,11.2985669 72.0466021,14.865391 67.7275897,15.0990926 C65.6535188,15.2113149 63.6213119,14.5241684 62.078032,13.1888177 C60.534752,11.853467 59.6068167,9.97929724 59.4983616,7.97860502 C59.2725161,3.81239458 62.5906747,0.245570492 66.9096871,0.0118688745 C68.983758,-0.100353487 71.0159649,0.586793003 72.5592449,1.92214372 C74.1025248,3.25749444 75.0304601,5.13166421 75.1389152,7.13235643 Z M67.5786021,11.3675542 C68.5346298,11.3057915 69.4255356,10.8454025 70.0553299,10.0876678 C70.6851241,9.32993317 71.0022171,8.3369227 70.9368519,7.32708798 C70.871486,6.31725035 70.4290141,5.37330984 69.7067758,4.70292427 C68.9845375,4.03253871 68.0416952,3.69062307 67.0856653,3.75239551 C66.1296375,3.81415825 65.2387317,4.27454725 64.6089375,5.03228191 C63.9791433,5.79001658 63.6620502,6.78302705 63.7274154,7.79286177 C63.7927813,8.8026994 64.2352532,9.74663991 64.9574916,10.4170255 C65.6797299,11.087411 66.6225721,11.4293267 67.5786021,11.3675542 L67.5786021,11.3675542 Z M90.9722711,7.20462237 C91.0631957,9.20499575 90.3251671,11.1608773 88.9205436,12.6419937 C87.5159202,14.12311 85.559762,15.0081353 83.4824032,15.1023733 C81.4050479,15.1966212 79.3766548,14.4923645 77.8434477,13.1445317 C76.3102406,11.7966989 75.3978121,9.91569771 75.3068862,7.91532738 C75.2159616,5.914954 75.9539902,3.95907246 77.3586136,2.47795609 C78.7632371,0.996839727 80.7193953,0.111814428 82.7967541,0.017576446 C84.8741094,-0.0766714888 86.9025025,0.627585257 88.4357096,1.97541804 C89.9689167,3.32325082 90.8813452,5.20425204 90.9722711,7.20462237 L90.9722711,7.20462237 Z M83.3707524,11.3695766 C84.3284804,11.31609 85.2245233,10.8634222 85.8617591,10.1111564 C86.4989949,9.35889057 86.8252239,8.36864932 86.7686783,7.35827739 C86.7121412,6.3479083 86.2774634,5.40017021 85.56027,4.72355626 C84.8430765,4.04694232 83.9021166,3.69687767 82.9443922,3.75037314 C81.9866642,3.80385975 81.0906214,4.25652753 80.4533855,5.00879335 C79.8161497,5.76105918 79.4899208,6.75130043 79.5464663,7.76167236 C79.6030035,8.77204145 80.0376812,9.71977954 80.7548746,10.3963935 C81.4720681,11.0730074 82.413028,11.4230721 83.3707524,11.3695766 L83.3707524,11.3695766 Z M115.996032,1.87037999 C116.127986,1.9632591 116.148979,2.07411482 116.05901,2.20294715 L114.250646,4.76011894 C114.154679,4.89494346 114.03922,4.91591617 113.904267,4.82303705 C112.676199,3.99161916 110.040125,2.80516335 108.807558,3.9691484 C108.699596,4.07101582 108.657611,4.19535399 108.681603,4.34216292 C108.768572,4.89044931 109.051973,5.21852232 109.531804,5.32638194 C111.511108,5.78029117 114.55204,6.29262435 115.811597,8.01837825 C117.183615,9.89243913 116.562833,12.6428594 114.704986,13.973128 C111.722534,16.1033555 106.666311,14.9034172 103.998748,12.7776839 C103.869794,12.6758165 103.857798,12.5634627 103.962761,12.4406226 L105.964558,10.0632169 C106.075519,9.92839234 106.201474,9.91490988 106.342425,10.0227695 C107.489522,10.8811523 111.065765,12.5799413 112.199366,11.0923774 C112.363218,10.8771437 112.407869,10.5940663 112.318212,10.3389214 C112.228555,10.0837765 112.016586,9.89070364 111.754023,9.82502687 C110.239555,9.4505143 108.729586,9.00259727 107.224115,8.48127578 C104.259657,7.46110356 103.679361,3.88375954 105.685656,1.72207301 C108.20477,-0.992394059 113.296981,-0.0216574903 115.996032,1.87037999 Z M103.904282,0.315403818 C103.946038,0.315403818 103.986085,0.331975952 104.015612,0.361474538 C104.045138,0.390973125 104.061726,0.430981794 104.061726,0.472699095 L104.057228,3.75792332 C104.057228,3.8447951 103.986737,3.91521859 103.899783,3.91521859 L99.9456727,3.91072444 C99.8587184,3.91072444 99.788228,3.98114794 99.788228,4.06801972 L99.788228,14.6517448 C99.788228,14.7386166 99.7177376,14.8090401 99.6307833,14.8090401 L95.7846349,14.8090401 C95.742878,14.8090401 95.7028313,14.7924679 95.6733047,14.7629694 C95.6437781,14.7334708 95.6271903,14.6934621 95.6271903,14.6517448 L95.6271903,4.06801972 C95.6271903,3.98114794 95.5566999,3.91072444 95.4697456,3.91072444 L91.5111367,3.91072444 C91.4693798,3.91072444 91.4293331,3.89415231 91.3998065,3.86465372 C91.3702799,3.83515513 91.353692,3.79514647 91.353692,3.75342916 L91.353692,0.472699095 C91.353692,0.430981794 91.3702799,0.390973125 91.3998065,0.361474538 C91.4293331,0.331975952 91.4693798,0.315403818 91.5111367,0.315403818 L103.904282,0.315403818 Z M144.502515,13.6675258 L150.116542,0.387310231 C150.167524,0.264470109 150.260491,0.203048052 150.395444,0.203048052 L153.87722,0.203048052 C154.023525,0.202567434 154.155137,0.289632827 154.210103,0.423263437 L160.206496,14.5798384 C160.269474,14.7326395 160.218492,14.8090401 160.05355,14.8090401 L156.117433,14.8090401 C155.949492,14.8090401 155.835532,14.7311415 155.775553,14.5753442 L154.943345,12.4900583 C154.87437,12.3132883 154.743916,12.2249034 154.551983,12.2249034 L149.626214,12.2249034 C149.476267,12.2249034 149.372803,12.2953117 149.315823,12.4361285 L148.456625,14.5843325 C148.396646,14.7341376 148.287185,14.8090401 148.12824,14.8090401 L140.426947,14.8090401 C140.274001,14.8090401 140.155542,14.7446239 140.071572,14.6157916 L137.413006,10.6249857 C137.323038,10.4901612 137.198581,10.4227489 137.039637,10.4227489 L135.888042,10.4227489 C135.738095,10.4227489 135.663121,10.4991495 135.663121,10.6519506 L135.663121,14.5843325 C135.663121,14.7341376 135.588147,14.8090401 135.4382,14.8090401 L131.727004,14.8090401 C131.577057,14.8090401 131.502083,14.7341376 131.502083,14.5843325 L131.502083,0.553593809 C131.502083,0.421765387 131.56806,0.354353125 131.700014,0.351357024 C135.18179,0.264470109 137.735393,0.26896426 139.360821,0.364839477 C142.692651,0.565578212 144.394552,2.2314101 144.466527,5.36233514 C144.508512,7.28583168 143.595333,8.70598332 141.72699,9.62279008 C141.568046,9.7006887 141.539556,9.81304247 141.64152,9.95985139 L144.214616,13.6989848 C144.328576,13.8667665 144.424542,13.8562801 144.502515,13.6675258 Z M135.654124,4.03206651 L135.663121,7.06112414 C135.663121,7.12813951 135.717499,7.18246621 135.784578,7.18246621 L138.501623,7.17797206 C139.487857,7.17539709 140.285375,6.47923688 140.283003,5.62299589 L140.283003,5.45221816 C140.281859,5.04097423 140.092585,4.64704938 139.756819,4.35711511 C139.421054,4.06718084 138.966305,3.90499087 138.492627,3.90622324 L135.775581,3.91072444 C135.708502,3.91072444 135.654124,3.96505114 135.654124,4.03206651 L135.654124,4.03206651 Z M150.696838,8.77339558 C150.680569,8.81622009 150.68641,8.86429792 150.712461,8.90199084 C150.738511,8.93968377 150.781443,8.9621754 150.827292,8.96214992 L153.400388,8.97113824 C153.446236,8.97113824 153.489168,8.94867207 153.515219,8.91097914 C153.54127,8.87328622 153.547111,8.82520839 153.530842,8.78238389 L152.257789,5.50614797 C152.237291,5.45193488 152.185342,5.41606025 152.127335,5.41606025 C152.069328,5.41606025 152.017379,5.45193488 151.996881,5.50614797 L150.696838,8.77339558 Z M56.2795178,7.36223224 C57.2631721,7.7067838 57.8914513,8.13672422 58.1643554,8.65205351 C59.9682215,12.0226666 57.4940909,14.5618618 54.1292734,14.777581 C52.8667171,14.8614718 50.1586688,14.8599738 46.0051284,14.7730869 C45.8731748,14.7700908 45.8071979,14.7026785 45.8071979,14.5708501 L45.8071979,0.549099659 C45.8071979,0.408282934 45.8776732,0.336376522 46.0186236,0.333380421 C48.5437363,0.285442813 51.0538542,0.292933064 53.5489773,0.355851175 C56.153562,0.418769286 58.546721,1.75802622 58.0563933,4.64327102 C57.8764566,5.7128789 57.2781668,6.53381045 56.2615241,7.10606565 C56.0785884,7.20793306 56.0845863,7.29332193 56.2795178,7.36223224 Z M49.7433147,3.83432388 L49.7433147,5.87466833 C49.7433147,5.96650422 49.8178331,6.04095191 49.9097562,6.04095191 L52.5008457,6.0454467 C53.3462978,6.04610539 54.0323594,5.53757492 54.034813,4.90842591 L54.034813,4.8185429 C54.0359859,4.51522324 53.8748933,4.22390007 53.5870919,4.0088862 C53.2992905,3.79387234 52.9084474,3.67284937 52.5008457,3.67253445 L49.9097562,3.6680403 C49.8178331,3.6680403 49.7433147,3.74248799 49.7433147,3.83432388 Z M49.7433147,9.09248029 L49.7343179,11.3036025 C49.7343179,11.378064 49.7947382,11.438427 49.8692705,11.438427 L53.0766433,11.451924 C53.4765967,11.4534216 53.8606205,11.3368073 54.144123,11.127754 C54.4276254,10.9187007 54.5873497,10.634358 54.588115,10.3373601 L54.588115,10.0946759 C54.5897109,9.47710957 53.9172883,8.97427683 53.0856402,8.97113822 L49.8782673,8.95765577 C49.803735,8.95765577 49.7433147,9.01801876 49.7433147,9.09248029 L49.7433147,9.09248029 Z M125.766599,4.06352557 L125.766599,14.656239 C125.766599,14.7406287 125.698122,14.8090401 125.613652,14.8090401 L121.870968,14.8090401 C121.786498,14.8090401 121.718021,14.7406287 121.718021,14.656239 L121.718021,4.06352557 C121.718021,3.97913584 121.649545,3.91072444 121.565075,3.91072444 L117.597469,3.91072444 C117.513,3.91072444 117.444523,3.84231305 117.444523,3.75792332 L117.444523,0.468204945 C117.444523,0.383815213 117.513,0.315403818 117.597469,0.315403818 L129.999611,0.315403818 C130.084081,0.315403818 130.152557,0.383815213 130.152557,0.468204945 L130.152557,3.75792332 C130.152557,3.84231305 130.084081,3.91072444 129.999611,3.91072444 L125.919545,3.91072444 C125.835075,3.91072444 125.766599,3.97913584 125.766599,4.06352557 Z M173,5.14661591 L173,5.88815078 C172.526167,8.90822011 170.644328,10.4796748 167.354484,10.602515 C166.604747,10.632476 165.823522,10.6519506 165.010808,10.6609389 C164.863859,10.663935 164.790385,10.7373395 164.790385,10.8811523 L164.794883,14.5843325 C164.794883,14.7341376 164.71991,14.8090401 164.569962,14.8090401 L160.966729,14.8090401 C160.816781,14.8090401 160.741808,14.7341376 160.741808,14.5843325 L160.741808,0.553593809 C160.741808,0.427757588 160.806285,0.363341426 160.93524,0.360345326 C164.303056,0.252485707 166.62574,0.258477908 167.903291,0.378321929 C170.983209,0.665947579 172.682112,2.2553789 173,5.14661591 Z M164.772391,3.91971274 L164.799382,7.37122054 C164.799382,7.44320002 164.857788,7.50155091 164.929836,7.50155091 L166.742699,7.48806846 C167.909297,7.47938093 168.849412,6.6889858 168.843489,5.72186721 L168.843489,5.51513627 C168.840631,5.04988154 168.614775,4.60513484 168.215661,4.27889667 C167.816546,3.9526585 167.276927,3.77170155 166.715708,3.77589992 L164.902845,3.78938237 C164.830798,3.78938237 164.772391,3.84773327 164.772391,3.91971274 Z M72.7142673,24.0163865 C72.8227907,26.0182694 72.1020001,27.982792 70.7104615,29.4777808 C69.3189229,30.9727696 67.3706242,31.8757626 65.2941699,31.9881112 C63.2177175,32.1004611 61.1832015,31.4129651 59.6381924,30.0768644 C58.0931833,28.7407638 57.1642401,26.865505 57.05572,24.8636239 C56.9471966,22.861741 57.6679872,20.8972184 59.0595258,19.4022296 C60.4510644,17.9072408 62.3993631,17.0042478 64.4758174,16.8918992 C66.5522698,16.7795493 68.5867858,17.4670453 70.1317949,18.803146 C71.676804,20.1392466 72.6057472,22.0145054 72.7142673,24.0163865 L72.7142673,24.0163865 Z M65.1477013,28.2561235 C67.1382906,28.1240202 68.6383849,26.3084036 68.4982589,24.2008265 C68.358138,22.0932542 66.6308656,20.4918073 64.6402796,20.623887 C62.6496904,20.7559902 61.1495961,22.5716068 61.2897221,24.6791839 C61.429843,26.7867562 63.1571154,28.3882031 65.1477013,28.2561235 L65.1477013,28.2561235 Z M83.368998,26.1567708 L81.007328,26.1567708 C80.8573806,26.1567708 80.782407,26.0818683 80.782407,25.9320633 L80.7869054,23.3479266 C80.7869054,23.1981215 80.8603796,23.123219 81.007328,23.123219 L87.3051148,23.123219 C87.4550621,23.123219 87.5300358,23.1981215 87.5300358,23.3479266 L87.5300358,29.5183956 C87.5298336,29.6516959 87.4682424,29.7764244 87.3635942,29.8554569 C82.4018379,33.6170611 73.6704063,32.4126287 73.3915043,24.8085256 C73.1126023,17.3347528 81.5786272,14.7191571 86.8687681,18.8717524 C86.9227258,18.9156741 86.9568814,18.9793136 86.9636396,19.0485194 C86.9703978,19.1177252 86.9491984,19.1867601 86.9047555,19.2402728 L84.7500127,21.8199153 C84.7112698,21.8663195 84.6550876,21.8948561 84.5941466,21.8990841 C84.5332057,21.9033121 84.4726425,21.8828752 84.4261265,21.8423861 C81.4166841,19.2627435 76.886776,20.9660266 77.5750341,25.1995167 C78.0338729,28.0218434 80.8138959,29.0689805 83.3734964,27.9724077 C83.5105165,27.9118149 83.5987536,27.7760587 83.5984174,27.6263581 L83.5984174,26.3814783 C83.5984174,26.2316733 83.5219443,26.1567708 83.368998,26.1567708 Z M103.888312,24.0123868 C104.114296,28.1810846 100.796234,31.7499249 96.4772115,31.9836171 C92.1581867,32.2172978 88.4737356,29.0273352 88.2477585,24.8586353 C88.021775,20.6899375 91.3398367,17.1210973 95.6588591,16.8874051 C99.9778839,16.6537243 103.662335,19.8436869 103.888312,24.0123868 Z M115.613667,18.7234454 C115.763614,18.8283089 115.786106,18.9556432 115.681143,19.1054482 L113.850286,21.6671142 C113.757319,21.7959465 113.646358,21.812425 113.517403,21.7165498 C112.194868,20.7278367 110.701393,20.3038884 109.036978,20.4447052 C108.721202,20.4708299 108.458795,20.7002177 108.389205,21.0109682 C108.245256,21.6401493 108.527157,22.0326384 109.234908,22.1884357 C111.214213,22.6198741 112.799156,23.1007483 113.989737,23.6310581 C116.787754,24.880432 116.76976,28.8532613 114.615018,30.6149684 C111.866483,32.8620438 106.189478,32.0306259 103.679361,29.6622084 C103.56592,29.5527593 103.556114,29.3744476 103.656868,29.2532407 L105.564198,26.9612238 C105.678158,26.8234032 105.810112,26.8054266 105.960059,26.907294 C107.534506,28.0263375 109.554296,28.9026969 111.488616,28.3139632 C111.694632,28.2528856 111.863207,28.1040778 111.949782,27.9068736 C112.036357,27.7096693 112.032218,27.48392 111.938458,27.2892968 C111.803506,27.0106594 111.527603,26.8114188 111.110749,26.6915747 C108.191275,25.8511685 103.440944,25.2444582 104.273152,20.8491787 C105.262804,15.6449521 112.352313,16.3909812 115.613667,18.7234454 Z M95.7763129,20.6228084 C93.7850225,20.7793901 92.305395,22.6153233 92.4714592,24.7234962 C92.6375402,26.8316829 94.3864463,28.4137764 96.3777515,28.257202 C98.3690418,28.1006203 99.8486693,26.2646871 99.6826051,24.1565142 C99.5165241,22.0483275 97.7676181,20.466234 95.7763129,20.6228084 Z M50.0177183,28.0667849 L56.6663818,28.0667849 C56.7558205,28.0667849 56.8283249,28.1392205 56.8283249,28.2285743 L56.8283249,31.5003161 C56.8283249,31.5896699 56.7558205,31.6621055 56.6663818,31.6621055 L45.969141,31.6621055 C45.9261911,31.6621055 45.8850002,31.6450599 45.85463,31.6147185 C45.8242598,31.5843771 45.8071979,31.5432253 45.8071979,31.5003161 L45.8071979,17.3302587 C45.8071979,17.2873494 45.8242598,17.2461977 45.85463,17.2158563 C45.8850002,17.1855149 45.9261911,17.1684692 45.969141,17.1684692 L49.6938321,17.1684692 C49.7832708,17.1684692 49.8557752,17.2409048 49.8557752,17.3302587 L49.8557752,27.9049955 C49.8557752,27.9479047 49.872837,27.9890565 49.9032072,28.0193979 C49.9335775,28.0497393 49.9747683,28.0667849 50.0177183,28.0667849 Z" id="Combined-Shape" fill="#353965"></path>
            </g>
        </g>
    </g>
</svg>